# xmcd
#
# Track frame offsets:
#	150
#	10944
#	23844
#	35795
#	46202
#	57934
#	75581
#	87683
#	99188
#	115751
#	132257
#	143121
#	153734
#	172345
#	184102
#
# Disc length: 2599 seconds
#
# Revision: 1
# Processed by: cddbd v1.5.1PL0 Copyright (c) Steve Scherf et al.
# Submitted via: audiograbber 1.81.02
#
DISCID=c90a250f
DTITLE=Country Sisters - The  Best Of
DYEAR=2004
DGENRE=Country
TTITLE0=You Can Make Me Happy
TTITLE1=Everybody Wants To Go To Heaven
TTITLE2=I Don't Know
TTITLE3=You Are Lookin' At Country
TTITLE4=Other Side Of The Hill
TTITLE5=Lord Don't Forsake Me
TTITLE6=Don't Follow Me
TTITLE7=Ghost Dance
TTITLE8=Blanket On The Ground
TTITLE9=She' Running Away
TTITLE10=One Way Track
TTITLE11=Louisiana Saturday Night
TTITLE12=Czardas
TTITLE13=Sally Ann
TTITLE14=Hallejujah
EXTD=
EXTT0=
EXTT1=
EXTT2=
EXTT3=
EXTT4=
EXTT5=
EXTT6=
EXTT7=
EXTT8=
EXTT9=
EXTT10=
EXTT11=
EXTT12=
EXTT13=
EXTT14=
PLAYORDER=
